<svg width="56" height="56" viewBox="0 0 56 56" fill="none" xmlns="http://www.w3.org/2000/svg">
<path d="M10.3223 10.3223C8.00087 12.6438 6.15938 15.3998 4.90301 18.4329C3.64664 21.4661 3 24.717 3 28C3 31.283 3.64664 34.5339 4.90301 37.5671C6.15938 40.6002 8.00087 43.3562 10.3223 45.6777C12.6438 47.9991 15.3998 49.8406 18.4329 51.097C21.4661 52.3534 24.717 53 28 53C31.283 53 34.5339 52.3534 37.5671 51.097C40.6002 49.8406 43.3562 47.9991 45.6777 45.6777M10.3223 10.3223C12.6438 8.00087 15.3998 6.15938 18.4329 4.90301C21.4661 3.64664 24.717 3 28 3C31.283 3 34.5339 3.64664 37.5671 4.90301C40.6002 6.15938 43.3562 8.00087 45.6777 10.3223C47.9991 12.6438 49.8406 15.3998 51.097 18.4329C52.3534 21.4661 53 24.717 53 28C53 31.283 52.3534 34.5339 51.097 37.5671C49.8406 40.6002 47.9991 43.3562 45.6777 45.6777M10.3223 10.3223L28 28L45.6777 45.6777" stroke="#FF0000" stroke-width="5" stroke-linecap="round" stroke-linejoin="round"/>
</svg>
