<svg width="196" height="196" viewBox="0 0 196 196" fill="none" xmlns="http://www.w3.org/2000/svg">
<g clip-path="url(#clip0_531_50)">
<path d="M83.9312 -56.3209L101.23 66.8129C102.319 74.5658 111.492 78.1168 117.518 73.118L213.263 -6.31302L127.724 83.9774C122.337 89.6636 125.282 99.055 132.952 100.646L254.767 125.921L130.791 115.388C122.988 114.725 117.485 122.882 121.023 129.869L177.19 240.807L108.139 137.368C103.793 130.857 93.9893 131.639 90.7301 138.756L38.9481 251.833L76.8208 133.395C79.206 125.935 72.48 118.753 64.8807 120.645L-55.8588 150.696L60.4108 106.432C67.7311 103.645 69.1507 93.9055 62.9305 89.1451L-35.8394 13.5547L71.2862 76.8053C78.0278 80.7858 86.522 75.8258 86.3685 67.9982L83.9312 -56.3209Z" fill="#8EA0FF"/>
</g>
<defs>
<clipPath id="clip0_531_50">
<rect width="196" height="196" fill="white"/>
</clipPath>
</defs>
</svg>
