<svg width="932" height="373" viewBox="0 0 932 373" fill="none" xmlns="http://www.w3.org/2000/svg">
<g clip-path="url(#clip0_237_2382)">
<rect width="932.456" height="392.482" fill="#F4F8F8"/>
<g filter="url(#filter0_f_237_2382)">
<path d="M756.515 -5.84466L795.012 234.654C795.747 239.248 801.205 241.293 804.779 238.313L991.926 82.2644L827.78 262.308C824.644 265.748 826.449 271.294 831.01 272.228L1069.75 321.142L826.561 305.161C821.917 304.855 818.708 309.724 820.821 313.871L931.385 530.908L792.281 330.927C789.625 327.108 783.821 327.634 781.894 331.869L681.021 553.604L750.753 320.223C752.085 315.764 748.054 311.551 743.54 312.687L507.188 372.141L733.241 281.092C737.559 279.352 738.338 273.572 734.634 270.752L540.786 123.162L752.946 243.012C756.997 245.301 761.998 242.307 761.895 237.656L756.515 -5.84466Z" fill="url(#paint0_radial_237_2382)" fill-opacity="0.66"/>
</g>
<path d="M909.316 1057.26C864.429 993.191 914.649 920.344 897.983 846.31C880.873 770.14 844.429 771.327 819.763 668.581C803.986 603.564 914.205 416.581 919.094 349.666C924.871 269.226 871.984 228.175 893.317 149.87C905.983 103.124 918.649 56.3785 931.538 9.63281" fill="url(#paint1_linear_237_2382)" fill-opacity="0.25"/>
<path d="M883.762 1057.26C853.985 1014.55 866.207 967.801 872.651 919.632C875.762 895.666 877.54 871.462 872.206 847.022C855.54 771.327 819.097 771.089 796.653 669.53C792.208 649.361 799.764 618.276 812.208 582.683C838.429 507.7 883.317 413.971 892.428 362.48C893.095 358.209 893.761 353.937 893.984 350.378C897.983 284.649 863.762 244.785 862.873 189.497C862.651 177.395 863.984 164.344 867.762 150.107C880.206 103.124 893.095 56.6157 905.761 9.63275" fill="url(#paint2_linear_237_2382)" fill-opacity="0.25"/>
<path d="M857.984 1057.26C828.207 1014.78 840.207 968.276 846.651 920.106C849.762 896.377 851.54 872.174 846.207 847.733C829.985 772.513 793.541 770.615 773.32 670.479C769.32 650.31 777.32 619.225 789.986 583.869C816.874 508.412 859.095 415.395 867.317 363.192C867.984 358.92 868.428 354.887 868.65 351.09C871.761 285.836 838.429 245.26 837.318 189.734C837.096 177.395 838.429 164.582 842.207 150.344C854.429 103.361 867.317 56.6157 880.206 9.63275" fill="url(#paint3_linear_237_2382)" fill-opacity="0.25"/>
<path d="M832.207 1057.26C802.652 1015.02 814.207 968.513 820.652 920.818C823.763 897.089 825.318 873.123 820.207 848.92C804.43 774.174 767.987 770.852 749.987 671.903C746.209 651.496 754.876 620.649 767.542 585.53C795.097 509.835 834.651 417.293 841.762 364.141C842.429 359.87 842.873 355.836 842.873 352.039C845.096 287.022 812.43 245.971 811.319 190.446C811.096 178.107 812.43 165.056 815.985 151.056C827.985 103.836 841.096 57.0902 853.984 9.86993" fill="url(#paint4_linear_237_2382)" fill-opacity="0.25"/>
<path d="M806.43 1057.26C777.098 1015.26 788.431 968.988 794.653 921.293C797.764 897.801 799.319 873.835 794.431 849.632C779.098 775.361 742.654 770.378 727.099 673.09C723.766 652.445 732.877 621.835 745.765 586.954C774.209 511.022 811.097 419.192 817.097 365.09C817.541 360.819 817.985 356.785 817.985 352.988C819.319 288.209 787.32 246.683 785.986 190.921C785.764 178.582 786.875 165.531 790.431 151.294C802.208 104.073 815.541 57.0902 828.43 9.86993" fill="url(#paint5_linear_237_2382)" fill-opacity="0.25"/>
<path d="M780.875 1057.26C751.542 1015.5 762.653 969.225 768.875 921.767C771.986 898.276 773.32 874.31 768.653 850.344C753.542 776.784 717.543 769.903 703.988 674.039C701.099 653.157 710.655 622.785 723.765 588.378C752.876 511.971 787.097 420.853 792.208 365.802C792.652 361.531 792.875 357.497 793.097 353.7C793.541 289.395 762.431 247.158 760.875 191.395C760.653 178.819 761.764 165.768 765.32 151.768C776.875 104.311 790.208 57.3275 803.097 9.86993" fill="url(#paint6_linear_237_2382)" fill-opacity="0.25"/>
<path d="M755.098 1057.26C725.988 1015.73 736.654 969.699 742.876 922.242C745.987 898.988 747.32 875.021 742.654 851.055C727.988 777.971 692.211 769.428 680.655 674.988C678.211 653.869 688.211 623.496 701.544 589.564C731.543 512.92 762.875 422.276 766.875 366.514C767.098 362.242 767.542 358.209 767.542 354.412C767.32 290.344 736.654 247.632 735.098 191.87C734.654 179.294 735.987 166.243 739.321 152.005C750.654 104.31 764.209 57.5648 777.097 9.86993" fill="url(#paint7_linear_237_2382)" fill-opacity="0.25"/>
<path d="M729.321 1057.26C700.433 1015.97 710.655 969.937 716.655 922.954C719.544 899.699 721.099 875.971 716.432 852.005C702.433 779.395 666.656 769.191 657.101 676.174C654.879 654.818 665.767 624.683 679.1 590.988C709.766 514.107 738.432 424.175 741.543 367.463C741.765 363.192 741.987 359.158 741.987 355.361C740.876 291.531 710.877 248.344 709.322 192.344C708.877 179.768 710.21 166.48 713.544 152.48C724.654 104.785 738.21 57.8021 751.32 9.86993" fill="url(#paint8_linear_237_2382)" fill-opacity="0.25"/>
<path d="M703.544 1057.26C674.656 1016.21 684.878 970.411 690.655 923.428C693.544 900.411 694.878 876.683 690.433 852.716C676.878 780.581 641.323 768.717 633.99 677.123C632.213 655.53 643.546 625.632 657.101 592.174C688.655 514.819 714.655 425.598 716.655 367.937C716.877 363.666 716.877 359.632 716.877 355.836C714.877 292.48 685.767 248.582 683.989 192.582C683.544 179.768 684.878 166.717 687.989 152.48C698.877 104.548 712.655 57.5649 725.543 9.63275" fill="url(#paint9_linear_237_2382)" fill-opacity="0.25"/>
<path d="M677.989 1057.26C649.323 1016.21 659.101 970.649 664.879 923.903C667.767 900.886 669.101 877.394 664.656 853.428C651.546 781.767 616.435 768.242 610.88 678.31C609.547 656.479 621.324 626.818 635.102 593.598C667.323 516.005 690.656 427.497 691.544 368.887C691.544 364.615 691.767 360.581 691.544 356.785C688.878 293.666 660.212 249.531 658.434 193.056C657.99 180.243 659.101 166.955 662.212 152.955C672.878 104.785 686.656 57.8022 699.766 9.63275" fill="url(#paint10_linear_237_2382)" fill-opacity="0.25"/>
<path d="M652.212 1057.26C623.768 1016.45 633.101 970.886 638.879 924.377C641.768 901.598 642.879 877.869 638.657 854.14C625.99 782.954 591.324 767.53 587.547 679.259C586.658 657.191 598.88 627.768 612.879 594.785C645.99 516.954 666.656 428.92 666.434 369.598C666.434 365.327 666.434 361.293 666.211 357.497C662.656 294.615 634.657 250.005 632.879 193.531C632.434 180.717 633.546 167.429 636.657 153.429C647.101 105.26 661.1 58.0394 674.211 9.86993" fill="url(#paint11_linear_237_2382)" fill-opacity="0.25"/>
<path d="M626.435 1057.26C597.991 1016.68 607.324 971.36 612.88 925.089C615.769 902.31 616.88 878.818 612.658 855.089C600.436 784.378 566.214 767.056 564.214 680.445C563.77 658.14 576.436 628.954 590.658 596.208C624.435 517.903 642.657 430.819 641.101 370.31C641.101 366.039 641.101 362.005 640.657 358.209C636.435 295.802 608.88 250.48 607.102 193.768C606.658 180.955 607.769 167.429 610.658 153.429C620.88 105.022 634.879 57.8022 648.212 9.39545" fill="url(#paint12_linear_237_2382)" fill-opacity="0.25"/>
<path d="M600.657 1057.26C572.436 1016.92 581.325 971.598 586.88 925.564C589.547 903.021 590.88 879.53 586.88 856.038C574.88 785.801 541.548 766.818 541.326 681.632C541.326 659.09 554.659 630.14 568.881 597.632C603.546 519.09 618.879 432.48 616.435 371.259C616.213 366.988 616.213 362.954 615.99 359.158C610.879 296.988 584.213 251.192 582.214 194.48C581.769 181.429 582.88 168.141 585.769 154.141C595.769 105.497 609.991 58.5139 623.101 9.86993" fill="url(#paint13_linear_237_2382)" fill-opacity="0.25"/>
<path d="M575.103 1057.26C547.104 1017.16 555.548 972.072 561.103 926.038C563.77 903.496 564.881 880.242 561.103 856.75C549.548 787.225 516.882 766.106 518.215 682.818C518.66 659.801 532.437 631.327 546.881 599.056C582.436 520.276 595.102 434.378 591.547 371.971C591.325 367.7 591.102 363.666 590.88 359.87C585.103 298.175 558.881 251.666 556.659 194.955C556.214 181.904 557.103 168.616 559.992 154.378C569.77 105.734 583.991 58.514 597.324 9.63275" fill="url(#paint14_linear_237_2382)" fill-opacity="0.25"/>
<path d="M549.326 1057.26C521.327 1017.39 529.549 972.31 535.104 926.513C537.771 903.971 538.882 880.954 535.104 857.462C523.993 788.411 491.994 765.395 494.883 683.767C495.772 660.513 509.994 632.276 524.66 600.479C561.103 521.463 571.103 436.039 566.214 372.92C565.992 368.649 565.77 364.615 565.325 360.819C558.659 299.361 533.104 252.378 530.882 195.429C530.437 182.378 531.326 168.853 533.993 154.853C543.548 105.972 557.992 58.7512 571.325 9.86993" fill="url(#paint15_linear_237_2382)" fill-opacity="0.25"/>
<path d="M523.549 1057.26C495.772 1017.63 503.772 972.784 509.105 927.225C511.771 904.92 512.66 881.666 509.105 858.411C498.438 789.835 467.328 764.92 471.55 684.954C472.883 661.462 487.55 633.462 502.438 601.903C539.548 522.412 547.104 437.937 541.104 373.87C540.659 369.598 540.437 365.565 539.993 361.768C532.66 300.548 507.771 253.09 505.327 196.141C504.66 182.853 505.771 169.565 508.438 155.327C517.771 106.209 532.215 58.9885 545.548 9.86993" fill="url(#paint16_linear_237_2382)" fill-opacity="0.25"/>
<path d="M497.994 1057.26C470.439 1017.87 477.994 973.021 483.327 927.699C485.994 905.394 486.883 882.377 483.327 859.123C473.105 791.022 442.662 764.445 448.662 685.903C450.439 662.174 465.772 634.412 480.661 603.09C518.66 523.361 523.548 439.598 516.215 374.344C515.771 370.073 515.549 366.039 514.882 362.242C506.66 301.497 482.438 253.327 479.994 196.141C479.327 182.853 480.216 169.328 482.883 155.328C491.994 106.209 506.66 58.7513 519.993 9.63275" fill="url(#paint17_linear_237_2382)" fill-opacity="0.25"/>
<path d="M472.217 1057.26C444.662 1017.87 451.995 973.496 457.328 928.174C459.773 906.106 460.662 883.089 457.328 859.835C447.551 792.208 417.996 763.733 425.329 687.09C427.552 663.123 443.329 635.598 458.44 604.513C497.327 524.547 499.55 441.259 491.105 375.293C490.661 371.022 490.216 366.988 489.55 363.192C480.661 302.683 456.884 254.039 454.44 196.853C453.773 183.565 454.662 170.039 457.106 156.039C465.995 106.683 480.661 59.4631 494.216 9.86993" fill="url(#paint18_linear_237_2382)" fill-opacity="0.25"/>
<path d="M446.44 1057.26C419.107 1018.11 426.218 973.733 431.107 928.649C433.551 906.581 434.44 883.801 431.107 860.547C421.774 793.395 393.33 763.022 401.774 688.039C404.441 663.598 420.663 636.547 435.996 605.7C475.772 525.497 475.328 442.92 465.773 376.005C465.106 371.734 464.662 367.7 463.995 363.904C454.44 303.632 431.329 254.514 428.663 197.09C427.996 183.565 428.885 170.039 431.329 156.039C439.996 106.446 454.884 59.2259 468.439 9.63275" fill="url(#paint19_linear_237_2382)" fill-opacity="0.25"/>
<path d="M420.663 1057.26C393.552 1018.34 400.219 973.971 405.108 929.36C407.552 907.53 408.219 884.75 405.108 861.496C396.219 795.056 368.664 762.547 378.442 689.225C381.775 664.547 398.441 637.734 413.774 607.124C454.44 526.446 451.551 444.581 440.44 376.717C439.773 372.446 439.329 368.412 438.662 364.615C428.218 304.819 405.774 254.988 403.108 197.565C402.441 184.039 403.33 170.514 405.552 156.514C413.996 106.921 428.885 59.4632 442.44 9.63275" fill="url(#paint20_linear_237_2382)" fill-opacity="0.25"/>
<path d="M395.108 1057.26C367.997 1018.58 374.442 974.445 379.33 929.835C381.775 908.005 382.441 885.225 379.33 862.445C370.886 796.479 344.442 762.072 355.553 690.412C359.331 665.496 376.442 638.92 391.997 608.547C433.329 527.632 427.996 446.48 415.774 377.666C415.107 373.395 414.441 369.361 413.774 365.564C402.663 306.005 380.664 255.7 377.997 198.276C377.33 184.751 377.997 170.988 380.441 156.988C388.663 107.158 403.774 59.7004 417.329 9.86993" fill="url(#paint21_linear_237_2382)" fill-opacity="0.25"/>
<path d="M369.331 1057.26C342.443 1018.82 348.443 974.682 353.331 930.31C355.776 908.716 356.22 885.937 353.554 863.157C345.331 797.666 320.221 761.598 332.443 691.361C336.887 666.208 354.22 639.869 369.998 609.734C412.219 528.581 404.441 447.903 390.664 378.141C389.775 374.107 389.108 369.836 388.441 366.039C376.664 306.717 355.331 255.938 352.442 198.277C351.776 184.514 352.442 170.988 354.665 156.989C362.442 106.921 377.775 59.4633 391.552 9.39545" fill="url(#paint22_linear_237_2382)" fill-opacity="0.25"/>
<path d="M343.554 1057.26C316.888 1019.06 322.665 975.157 327.332 930.784C329.776 909.191 330.221 886.649 327.554 863.869C319.776 798.852 295.777 760.886 309.11 692.547C313.999 667.157 331.998 641.056 347.776 611.157C390.886 529.768 380.442 449.802 365.553 379.09C364.664 375.056 363.998 370.785 363.109 366.988C350.665 308.141 329.776 256.649 326.887 198.988C326.221 185.226 326.887 171.463 328.887 157.463C336.443 107.395 351.998 59.9377 365.553 9.63275" fill="url(#paint23_linear_237_2382)" fill-opacity="0.25"/>
<path d="M317.777 1057.26C291.111 1019.29 296.666 975.394 301.333 931.496C303.555 910.14 303.999 887.598 301.555 864.818C294.222 800.276 271.333 760.411 285.777 693.734C291.333 668.107 309.555 642.242 325.554 612.581C369.553 530.954 356.664 451.463 340.443 380.039C339.554 376.005 338.665 371.734 337.776 367.937C324.665 309.327 304.221 257.361 301.11 199.463C300.444 185.7 301.11 171.938 303.11 157.938C310.443 107.633 325.999 60.175 339.776 9.63275" fill="url(#paint24_linear_237_2382)" fill-opacity="0.25"/>
<path d="M292.222 1057.26C265.778 1019.53 270.889 975.869 275.555 931.971C277.778 910.615 278.222 888.31 275.778 865.53C268.889 801.462 247.334 759.937 262.889 694.683C269.111 668.818 287.555 643.191 303.777 614.005C348.665 532.141 333.332 453.124 315.554 380.751C314.443 376.717 313.777 372.446 312.666 368.649C298.666 310.276 279.111 257.836 275.778 199.938C274.889 186.175 275.555 172.175 277.555 158.412C284.666 107.87 300.444 60.4122 314.221 9.86993" fill="url(#paint25_linear_237_2382)" fill-opacity="0.25"/>
<path d="M266.445 1057.26C240.223 1019.77 244.89 976.106 249.556 932.445C251.778 911.089 252.001 889.021 249.778 866.242C243.334 802.886 222.89 759.462 239.557 695.632C246.445 669.293 265.334 644.14 281.555 615.191C327.332 533.09 309.555 454.785 290.444 381.463C289.333 377.429 288.444 373.158 287.555 369.361C272.889 311.463 253.778 258.548 250.445 200.412C249.556 186.412 250.223 172.649 252.223 158.649C259.112 108.107 275.111 60.4122 288.889 9.86993" fill="url(#paint26_linear_237_2382)" fill-opacity="0.25"/>
<path d="M240.667 1057.26C214.446 1019.77 219.112 976.581 223.557 932.92C225.779 911.801 226.001 889.496 223.779 866.954C217.779 804.072 198.668 758.75 216.224 696.818C223.779 670.242 242.889 645.327 259.111 616.615C305.999 534.276 285.555 456.446 264.889 382.412C263.778 378.378 262.667 374.344 261.778 370.31C246.445 312.649 227.779 259.259 224.446 200.887C223.557 186.887 224.223 173.124 226.001 159.124C232.667 108.344 248.667 60.6495 262.445 9.86993" fill="url(#paint27_linear_237_2382)" fill-opacity="0.25"/>
<path d="M214.89 1057.26C188.891 1020 193.113 976.818 197.557 933.632C199.78 912.513 199.78 890.445 197.78 867.903C192.002 805.496 174.447 758.513 192.891 698.005C201.113 671.428 220.446 646.513 236.89 618.039C284.666 535.463 261.556 458.107 239.779 383.124C238.667 379.09 237.556 375.056 236.445 371.022C220.446 313.598 202.446 259.734 198.891 201.361C198.002 187.361 198.446 173.361 200.224 159.361C206.668 108.344 222.89 60.8868 236.668 9.86993" fill="url(#paint28_linear_237_2382)" fill-opacity="0.25"/>
<path d="M189.336 1057.26C163.559 1020.24 167.336 977.293 171.781 934.106C173.781 913.225 174.003 891.157 172.003 868.615C166.67 806.683 150.448 758.039 170.003 698.954C178.892 672.14 198.669 647.462 215.113 619.225C263.778 536.412 238.445 459.531 215.113 383.836C213.779 379.802 212.668 375.768 211.557 371.734C194.891 314.785 177.336 260.209 173.781 201.599C172.892 187.361 173.336 173.599 175.114 159.599C181.336 108.582 197.558 60.8869 211.557 9.63275" fill="url(#paint29_linear_237_2382)" fill-opacity="0.25"/>
<path d="M163.558 1057.26C137.781 1020.48 141.559 977.53 145.781 934.581C147.781 913.699 147.781 891.869 146.003 869.564C141.114 808.106 126.226 757.801 146.67 700.14C156.225 673.09 176.224 648.649 192.891 620.649C242.445 537.598 214.668 461.192 189.78 384.548C188.446 380.514 187.335 376.48 186.002 372.446C168.669 315.734 151.558 260.683 148.003 202.073C147.114 187.836 147.558 173.836 149.114 159.836C154.892 108.582 171.558 60.8869 185.557 9.63275" fill="url(#paint30_linear_237_2382)" fill-opacity="0.25"/>
<path d="M137.781 1057.26C112.226 1020.72 115.56 977.767 119.559 935.055C121.559 914.411 121.559 892.581 120.004 870.276C115.56 809.293 102.004 757.327 123.337 701.327C133.781 674.039 154.003 649.835 170.669 622.073C221.112 538.785 190.891 462.853 164.669 385.497C163.336 381.463 162.003 377.429 160.669 373.395C142.67 316.921 126.226 261.395 122.448 202.548C121.559 188.311 122.004 174.31 123.559 160.31C129.115 108.819 145.781 61.1242 159.781 9.63275" fill="url(#paint31_linear_237_2382)" fill-opacity="0.25"/>
<path d="M112.226 1057.26C86.6714 1020.95 89.7824 978.242 93.7823 935.767C95.7822 915.123 95.56 893.293 94.2267 871.225C90.2268 810.954 78.2272 757.327 100.227 702.513C111.337 674.988 131.781 651.022 148.67 623.496C200.002 539.971 167.336 464.514 139.559 386.446C138.226 382.412 136.892 378.378 135.337 374.344C116.671 318.107 100.671 262.107 96.8933 203.26C96.0045 188.785 96.2267 174.785 97.7822 160.785C103.115 109.294 120.004 61.3614 134.003 9.86993" fill="url(#paint32_linear_237_2382)" fill-opacity="0.25"/>
<path d="M86.4492 1057.26C61.1165 1021.19 63.7831 978.479 67.783 936.242C69.783 915.835 69.5607 894.005 68.2274 871.937C64.4498 812.14 54.0056 756.852 77.1161 703.462C89.1158 675.937 109.782 651.971 126.67 624.683C179.113 540.92 143.781 465.937 114.671 386.92C113.115 382.887 111.782 378.853 110.449 374.819C91.1157 319.056 75.5606 262.344 71.5607 203.497C70.6718 189.022 70.8941 175.022 72.2274 161.022C77.3383 109.294 94.2268 61.5988 108.449 9.63275" fill="url(#paint33_linear_237_2382)" fill-opacity="0.25"/>
<path d="M60.6723 1057.26C35.5619 1021.43 38.0062 978.954 41.7839 936.716C43.5617 916.31 43.3393 894.716 42.2282 872.649C38.895 813.327 29.7841 756.615 53.7835 704.412C66.4499 676.649 87.3383 652.92 104.449 626.107C157.781 542.107 120.226 467.598 89.5604 387.87C88.0049 383.836 86.4494 379.802 85.1161 375.768C65.1166 320.242 50.2281 263.056 46.006 203.971C44.8949 189.497 45.3393 175.26 46.6726 161.497C51.5613 109.531 68.672 61.8359 82.6717 9.86993" fill="url(#paint34_linear_237_2382)" fill-opacity="0.25"/>
<path d="M34.8951 1057.26C10.0069 1021.67 12.0069 979.191 15.7846 937.191C17.5623 917.021 17.3401 895.428 16.229 873.361C13.3402 814.513 5.78477 756.378 30.4508 705.598C44.006 677.835 64.8943 654.344 82.2272 627.53C136.448 543.293 96.449 469.259 64.2277 388.819C62.6722 384.785 61.1167 380.751 59.5612 376.717C38.8951 321.429 24.451 263.768 20.2289 204.683C19.1178 190.209 19.34 175.971 20.6733 161.971C25.3399 110.005 42.4504 62.0732 56.6723 9.86993" fill="url(#paint35_linear_237_2382)" fill-opacity="0.25"/>
<path d="M9.34026 1057.26C-15.548 1021.67 -13.7703 979.665 -9.99259 937.903C-8.21486 917.733 -8.65926 896.377 -9.54813 874.31C-11.9925 815.937 -18.2145 756.378 7.34039 706.784C21.7845 679.022 42.895 655.53 60.2279 628.954C115.56 544.717 72.8941 470.92 39.3395 389.531C37.5617 385.497 36.0062 381.463 34.4507 377.429C13.1179 322.378 -0.881691 264.243 -5.10381 204.921C-6.21489 190.209 -5.99265 175.971 -4.65935 162.209C-0.215019 110.005 17.1179 62.0732 31.3397 9.86993" fill="url(#paint36_linear_237_2382)" fill-opacity="0.25"/>
<path d="M-16.4366 1057.26C-41.1026 1021.9 -39.5471 979.903 -35.9916 938.377C-29.5473 865.293 -52.4357 774.411 -15.77 707.734C-0.437065 679.971 20.6735 656.479 38.2285 630.14C94.4493 545.666 49.5616 472.344 14.2292 390.242C-10.659 332.107 -25.992 269.226 -30.6585 205.395C-35.7695 135.158 -12.659 76.0732 5.34056 9.86993" fill="url(#paint37_linear_237_2382)" fill-opacity="0.25"/>
<path d="M131.375 207.274V206.43C131.375 200.587 134.391 196.008 140.422 192.696C146.484 189.383 154.828 187.727 165.453 187.727C175.422 187.727 183.125 189.087 188.562 191.805C194 194.524 196.891 198.508 197.234 203.758L197.328 204.837H183.266L183.219 204.227C182.969 201.602 181.406 199.571 178.531 198.133C175.656 196.696 171.438 195.977 165.875 195.977C159.281 195.977 154.359 196.883 151.109 198.696C147.891 200.477 146.281 203.055 146.281 206.43V207.649C146.281 211.024 147.844 213.633 150.969 215.477C154.125 217.29 159.062 218.196 165.781 218.196C171.562 218.196 175.922 217.493 178.859 216.087C181.797 214.649 183.328 212.602 183.453 209.946L183.5 209.29H197.328L197.281 210.368C197.031 215.587 194.188 219.54 188.75 222.227C183.312 224.883 175.578 226.212 165.547 226.212C154.797 226.212 146.406 224.571 140.375 221.29C134.375 218.008 131.375 213.337 131.375 207.274ZM200.981 197.993V189.321H255.496V197.993H234.356V224.899H222.121V197.993H200.981ZM263.742 243.93V236.383C265.367 236.758 266.946 237.071 268.477 237.321C270.039 237.571 271.492 237.696 272.836 237.696C276.649 237.696 279.539 236.915 281.508 235.352C283.477 233.821 285.492 231.587 287.555 228.649L288.117 224.383L260.836 189.321H275.508L292.758 211.446C293.477 212.352 293.977 213.368 294.258 214.493C294.571 215.587 294.805 217.055 294.961 218.899H295.055C295.086 217.087 295.258 215.633 295.571 214.54C295.914 213.446 296.446 212.462 297.164 211.587L314.977 189.321H326.696L298.43 227.055C294.242 233.805 290.305 238.524 286.617 241.212C282.961 243.899 278.633 245.243 273.633 245.243C271.633 245.243 269.93 245.118 268.524 244.868C267.149 244.649 265.555 244.337 263.742 243.93ZM385.239 237.462V224.899H340.895V237.462H328.942V216.274H397.145V237.462H385.239ZM349.567 197.993L349.192 199.071C348.817 203.946 348.223 208.008 347.411 211.258C346.629 214.508 345.801 216.743 344.926 217.962H334.473C335.629 216.118 336.598 213.727 337.379 210.79C338.192 207.852 338.77 203.962 339.114 199.118L339.864 189.321H389.176V224.852H376.942V197.993H349.567ZM404.594 214.024C404.594 210.618 406.719 207.993 410.969 206.149C415.251 204.305 421.672 203.415 430.235 203.477L452.172 203.665V200.665C452.172 198.633 451.079 197.118 448.891 196.118C446.704 195.118 442.938 194.618 437.594 194.618C432.469 194.618 428.704 195.008 426.297 195.79C423.922 196.54 422.735 197.821 422.735 199.633V201.508L409.329 201.462V199.305C409.329 195.962 411.829 193.212 416.829 191.055C421.86 188.868 429.063 187.774 438.438 187.774C448.157 187.774 455.313 188.883 459.907 191.102C464.532 193.29 466.844 196.915 466.844 201.977V214.727C466.844 216.571 467.032 218.321 467.407 219.977C467.782 221.633 468.329 223.055 469.047 224.243V224.899H454.563C453.969 224.118 453.485 223.212 453.11 222.18C452.766 221.149 452.516 219.852 452.36 218.29C450.735 220.165 447.719 221.837 443.313 223.305C438.907 224.774 433.297 225.508 426.485 225.508C419.454 225.508 414.047 224.477 410.266 222.415C406.485 220.321 404.594 217.524 404.594 214.024ZM419.079 213.274C419.079 215.587 420.251 217.196 422.594 218.102C424.938 219.008 428.266 219.462 432.579 219.462C437.36 219.462 441.813 218.571 445.938 216.79C450.094 214.977 452.172 212.602 452.172 209.665V209.43L434.688 209.337C429.501 209.305 425.594 209.493 422.969 209.899C420.376 210.305 419.079 211.43 419.079 213.274ZM521.356 224.899L499.372 207.133L508.138 201.508L536.731 224.899H521.356ZM485.356 202.821H502.981L519.388 189.321H532.981L506.591 211.165H485.356V202.821ZM491.497 189.321V224.899H479.263V189.321H491.497ZM542.024 197.993V189.321H596.54V197.993H575.399V224.899H563.165V197.993H542.024ZM608.536 224.899V189.321H621.239V212.712C621.239 213.743 621.224 214.508 621.193 215.008C621.193 215.477 621.161 216.274 621.099 217.399H620.958C621.614 216.368 622.036 215.633 622.224 215.196C622.443 214.758 623.161 213.962 624.38 212.805L651.943 189.321H665.021V224.899H652.318V201.18C652.318 200.368 652.271 199.821 652.177 199.54C652.083 199.258 651.989 198.571 651.896 197.477H652.927C652.052 198.477 651.521 199.024 651.333 199.118C651.177 199.212 650.458 199.868 649.177 201.087L621.614 224.899H608.536ZM681.845 224.899V189.321H720.517C725.454 189.321 728.986 190.024 731.111 191.43C733.267 192.837 734.345 194.868 734.345 197.524C734.345 200.118 733.72 202.102 732.47 203.477C731.251 204.852 729.532 205.805 727.314 206.337V206.383C730.064 206.696 732.22 207.68 733.782 209.337C735.376 210.993 736.173 213.196 736.173 215.946C736.173 219.071 734.97 221.352 732.564 222.79C730.157 224.196 726.501 224.899 721.595 224.899H681.845ZM693.704 203.899H716.392C718.954 203.899 720.595 203.587 721.314 202.962C722.064 202.337 722.439 201.133 722.439 199.352C722.439 198.04 722.001 197.008 721.126 196.258C720.251 195.508 718.673 195.133 716.392 195.133H693.704V203.899ZM693.704 218.946H717.142C719.454 218.946 721.173 218.649 722.298 218.055C723.423 217.462 724.001 216.102 724.032 213.977C724.064 212.008 723.439 210.712 722.157 210.087C720.907 209.43 719.267 209.102 717.236 209.102H693.704V218.946Z" fill="#052B66"/>
<path d="M412.632 258.133V258.514C412.632 259.803 413.12 260.873 414.097 261.722C415.083 262.572 416.538 262.997 418.462 262.997C420.376 262.997 421.821 262.572 422.798 261.722C423.784 260.863 424.277 259.793 424.277 258.514V258.119C424.277 256.849 423.789 255.794 422.812 254.955C421.836 254.105 420.386 253.68 418.462 253.68C416.538 253.68 415.083 254.105 414.097 254.955C413.12 255.794 412.632 256.854 412.632 258.133ZM419.15 250.926C421.543 250.926 423.442 251.6 424.849 252.948C426.255 254.286 426.958 256.004 426.958 258.104V258.558C426.958 260.707 426.187 262.45 424.644 263.788C423.101 265.116 421.035 265.78 418.447 265.78C415.801 265.78 413.716 265.106 412.192 263.758C410.679 262.401 409.922 260.16 409.922 257.035V256.273C409.922 252.884 410.566 250.184 411.855 248.172C413.154 246.151 415.249 244.994 418.14 244.701C419.966 244.525 421.089 244.33 421.509 244.115C421.929 243.89 422.153 243.617 422.183 243.294H424.805C424.727 244.349 424.307 245.179 423.545 245.785C422.793 246.39 421.206 246.805 418.784 247.03C416.479 247.245 414.844 247.967 413.877 249.198C412.91 250.428 412.363 252.069 412.236 254.12H412.397C412.866 253.153 413.667 252.381 414.8 251.805C415.942 251.219 417.393 250.926 419.15 250.926ZM430.034 265.37V251.073H432.759V260.492C432.759 260.814 432.754 261.126 432.744 261.429C432.734 261.722 432.72 262.035 432.7 262.367C432.847 262.084 432.983 261.815 433.11 261.561C433.247 261.297 433.433 261.019 433.667 260.726L441.855 251.073H444.551V265.37H441.826V255.951C441.826 255.628 441.816 255.345 441.797 255.101C441.787 254.857 441.777 254.574 441.768 254.251H441.943C441.748 254.525 441.587 254.764 441.46 254.969C441.333 255.174 441.147 255.423 440.903 255.716L432.729 265.37H430.034ZM455.42 265.78C452.754 265.78 450.771 265.365 449.473 264.535C448.184 263.695 447.539 262.445 447.539 260.785V260.58H450.132V260.785C450.132 261.732 450.537 262.372 451.348 262.704C452.158 263.036 453.486 263.202 455.332 263.202C456.914 263.202 458.12 263.036 458.95 262.704C459.79 262.372 460.21 261.859 460.21 261.166C460.21 260.482 459.888 260.003 459.243 259.73C458.599 259.457 457.676 259.31 456.475 259.291H452.607V256.874H456.123C457.305 256.874 458.193 256.727 458.789 256.434C459.385 256.141 459.683 255.702 459.683 255.116C459.673 254.481 459.312 254.017 458.599 253.724C457.896 253.421 456.87 253.27 455.522 253.27C453.804 253.27 452.529 253.46 451.699 253.841C450.869 254.222 450.459 254.808 450.469 255.599V255.804H447.905V255.614C447.886 254.129 448.521 252.938 449.81 252.04C451.099 251.131 452.993 250.677 455.493 250.677C457.729 250.677 459.419 251.043 460.562 251.776C461.714 252.508 462.29 253.47 462.29 254.662C462.29 255.501 461.992 256.214 461.396 256.8C460.811 257.376 459.995 257.772 458.95 257.987V258.016C460.103 258.182 461.04 258.539 461.763 259.085C462.495 259.632 462.861 260.418 462.861 261.444C462.861 262.733 462.202 263.778 460.884 264.579C459.575 265.37 457.754 265.77 455.42 265.78ZM466.304 251.073H468.926V256.8H478.184V251.073H480.806V265.37H478.184V259.408H468.926V265.37H466.304V251.073ZM483.911 258.426V257.987C483.911 255.829 484.639 254.071 486.094 252.713C487.559 251.346 489.453 250.663 491.777 250.663C494.102 250.663 495.913 251.297 497.212 252.567C498.521 253.827 499.17 255.55 499.16 257.738V259.1H485.215V256.61H496.787L496.802 256.844C496.792 255.838 496.426 254.994 495.703 254.31C494.99 253.617 493.667 253.27 491.733 253.27C489.956 253.27 488.584 253.714 487.617 254.603C486.66 255.482 486.182 256.61 486.182 257.987V258.441C486.182 259.818 486.694 260.946 487.72 261.825C488.745 262.704 490.225 263.143 492.158 263.143C493.389 263.143 494.443 262.972 495.322 262.63C496.211 262.279 496.914 261.878 497.432 261.429L498.984 262.909C498.447 263.68 497.593 264.354 496.421 264.93C495.259 265.497 493.843 265.78 492.173 265.78C489.575 265.78 487.549 265.101 486.094 263.744C484.639 262.386 483.911 260.614 483.911 258.426ZM501.489 258.426V257.987C501.489 255.76 502.217 253.983 503.672 252.655C505.137 251.327 507.095 250.663 509.546 250.663C511.841 250.663 513.589 251.185 514.79 252.23C515.991 253.275 516.611 254.525 516.65 255.98L516.665 256.214H514.277V256.009C514.248 255.218 513.843 254.584 513.062 254.105C512.29 253.617 511.123 253.373 509.561 253.373C507.725 253.373 506.323 253.788 505.356 254.618C504.399 255.438 503.921 256.561 503.921 257.987V258.441C503.921 259.828 504.395 260.946 505.342 261.795C506.299 262.645 507.7 263.07 509.546 263.07C511.128 263.07 512.314 262.821 513.105 262.323C513.896 261.825 514.297 261.17 514.307 260.36V260.169H516.665V260.36C516.655 261.825 516.035 263.094 514.805 264.168C513.574 265.243 511.821 265.78 509.546 265.78C507.095 265.78 505.137 265.116 503.672 263.788C502.217 262.45 501.489 260.663 501.489 258.426ZM518.525 257.372V254.808H526.553V257.372H518.525ZM529.263 265.37V251.073H531.987V260.492C531.987 260.814 531.982 261.126 531.973 261.429C531.963 261.722 531.948 262.035 531.929 262.367C532.075 262.084 532.212 261.815 532.339 261.561C532.476 261.297 532.661 261.019 532.896 260.726L541.084 251.073H543.779V265.37H541.055V255.951C541.055 255.628 541.045 255.345 541.025 255.101C541.016 254.857 541.006 254.574 540.996 254.251H541.172C540.977 254.525 540.815 254.764 540.688 254.969C540.562 255.174 540.376 255.423 540.132 255.716L531.958 265.37H529.263ZM547.778 251.073H550.4V256.8H559.658V251.073H562.28V265.37H559.658V259.408H550.4V265.37H547.778V251.073ZM568.052 258.441C568.052 259.789 568.545 260.873 569.531 261.693C570.527 262.513 572.08 262.962 574.189 263.041V253.46C572.08 253.539 570.527 253.988 569.531 254.808C568.545 255.628 568.052 256.712 568.052 258.06V258.441ZM582.949 258.06C582.949 256.722 582.451 255.643 581.455 254.823C580.469 253.993 578.921 253.539 576.812 253.46V263.041C578.921 262.962 580.469 262.513 581.455 261.693C582.451 260.873 582.949 259.789 582.949 258.441V258.06ZM574.189 265.751C571.436 265.663 569.272 264.974 567.7 263.685C566.138 262.396 565.356 260.643 565.356 258.426V258.016C565.356 255.819 566.138 254.076 567.7 252.787C569.272 251.488 571.436 250.794 574.189 250.707V243.28H576.812V250.707C579.565 250.794 581.724 251.488 583.286 252.787C584.858 254.076 585.645 255.819 585.645 258.016V258.441C585.645 260.648 584.858 262.396 583.286 263.685C581.724 264.974 579.565 265.663 576.812 265.751V271.61H574.189V265.751ZM587.798 258.426V257.987C587.798 255.829 588.55 254.071 590.054 252.713C591.567 251.346 593.55 250.663 596.001 250.663C598.452 250.663 600.435 251.346 601.948 252.713C603.462 254.071 604.219 255.829 604.219 257.987V258.426C604.219 260.604 603.462 262.376 601.948 263.744C600.435 265.101 598.452 265.78 596.001 265.78C593.55 265.78 591.567 265.101 590.054 263.744C588.55 262.376 587.798 260.604 587.798 258.426ZM590.229 258.001V258.441C590.229 259.789 590.728 260.887 591.724 261.737C592.72 262.577 594.146 262.997 596.001 262.997C597.866 262.997 599.297 262.577 600.293 261.737C601.289 260.887 601.787 259.784 601.787 258.426V258.001C601.787 256.644 601.289 255.545 600.293 254.706C599.297 253.866 597.866 253.446 596.001 253.446C594.146 253.446 592.72 253.866 591.724 254.706C590.728 255.545 590.229 256.644 590.229 258.001ZM607.837 271.566V251.073H610.02L610.093 253.197H610.107C610.586 252.523 611.353 251.952 612.407 251.483C613.462 251.004 614.663 250.765 616.011 250.765C618.247 250.765 620.02 251.434 621.328 252.772C622.646 254.11 623.306 255.843 623.306 257.972V258.412C623.306 260.57 622.651 262.323 621.343 263.67C620.044 265.008 618.301 265.677 616.113 265.677C614.775 265.677 613.594 265.472 612.568 265.062C611.553 264.642 610.767 264.1 610.21 263.436V271.566H607.837ZM610.21 260.184C610.581 260.887 611.235 261.517 612.173 262.074C613.11 262.63 614.209 262.909 615.469 262.909C617.314 262.909 618.677 262.508 619.556 261.708C620.435 260.897 620.874 259.793 620.874 258.397V257.972C620.874 256.595 620.435 255.516 619.556 254.735C618.677 253.944 617.314 253.548 615.469 253.548C614.229 253.548 613.135 253.822 612.188 254.369C611.25 254.906 610.591 255.531 610.21 256.244V260.184ZM626.777 265.37V251.073H630.308L635.801 260.858C636.035 261.258 636.191 261.546 636.27 261.722C636.357 261.898 636.44 262.127 636.519 262.411H636.636C636.714 262.157 636.802 261.927 636.899 261.722C636.997 261.517 637.153 261.229 637.368 260.858L642.905 251.073H646.406V265.37H643.828V256.332C643.828 255.951 643.828 255.643 643.828 255.409C643.838 255.165 643.857 254.916 643.887 254.662H643.813C643.755 254.896 643.677 255.126 643.579 255.35C643.481 255.565 643.345 255.829 643.169 256.141L637.896 265.37H635.435L630.176 256.141C630.01 255.877 629.873 255.624 629.766 255.379C629.658 255.135 629.58 254.896 629.531 254.662H629.443C629.473 254.896 629.487 255.13 629.487 255.365C629.497 255.589 629.502 255.892 629.502 256.273V265.37H626.777ZM649.497 261.18C649.497 259.676 650.166 258.504 651.504 257.665C652.852 256.815 654.614 256.39 656.792 256.39L661.45 256.405V255.482C661.45 254.74 661.123 254.178 660.469 253.797C659.814 253.417 658.73 253.226 657.217 253.226C655.781 253.226 654.702 253.387 653.979 253.709C653.257 254.022 652.896 254.466 652.896 255.042V255.321H650.522V254.969C650.522 253.739 651.138 252.713 652.368 251.893C653.599 251.073 655.254 250.663 657.334 250.663C659.385 250.663 660.981 251.063 662.124 251.864C663.267 252.655 663.838 253.876 663.838 255.526V261.854C663.838 262.489 663.896 263.094 664.014 263.67C664.141 264.237 664.316 264.725 664.541 265.135V265.37H662.271C662.114 265.135 661.973 264.828 661.846 264.447C661.729 264.066 661.646 263.68 661.597 263.29C661.196 263.924 660.449 264.471 659.355 264.93C658.271 265.389 656.953 265.619 655.4 265.619C653.662 265.619 652.241 265.238 651.138 264.476C650.044 263.705 649.497 262.606 649.497 261.18ZM651.885 261.078C651.885 261.732 652.217 262.235 652.881 262.586C653.545 262.928 654.561 263.099 655.928 263.099C657.305 263.099 658.569 262.787 659.722 262.162C660.874 261.537 661.45 260.819 661.45 260.008V258.734H657.129C655.43 258.734 654.131 258.939 653.232 259.349C652.334 259.759 651.885 260.335 651.885 261.078ZM666.826 253.666V251.073H681.284V253.666H675.366V265.37H672.744V253.666H666.826ZM683.745 265.37V251.073H686.47V260.492C686.47 260.814 686.465 261.126 686.455 261.429C686.445 261.722 686.431 262.035 686.411 262.367C686.558 262.084 686.694 261.815 686.821 261.561C686.958 261.297 687.144 261.019 687.378 260.726L695.566 251.073H698.262V265.37H695.537V255.951C695.537 255.628 695.527 255.345 695.508 255.101C695.498 254.857 695.488 254.574 695.479 254.251H695.654C695.459 254.525 695.298 254.764 695.171 254.969C695.044 255.174 694.858 255.423 694.614 255.716L686.44 265.37H683.745ZM713.452 265.37L706.553 258.895L708.237 257.313L716.851 265.37H713.452ZM703.564 256.786H706.846L712.69 251.073H716.191L707.666 259.378H703.564V256.786ZM704.883 251.073V265.37H702.261V251.073H704.883ZM718.491 265.37V251.073H721.216V260.492C721.216 260.814 721.211 261.126 721.201 261.429C721.191 261.722 721.177 262.035 721.157 262.367C721.304 262.084 721.44 261.815 721.567 261.561C721.704 261.297 721.89 261.019 722.124 260.726L730.312 251.073H733.008V265.37H730.283V255.951C730.283 255.628 730.273 255.345 730.254 255.101C730.244 254.857 730.234 254.574 730.225 254.251H730.4C730.205 254.525 730.044 254.764 729.917 254.969C729.79 255.174 729.604 255.423 729.36 255.716L721.187 265.37H718.491Z" fill="#052B66"/>
</g>
<defs>
<filter id="filter0_f_237_2382" x="485.088" y="-27.9447" width="606.763" height="603.649" filterUnits="userSpaceOnUse" color-interpolation-filters="sRGB">
<feFlood flood-opacity="0" result="BackgroundImageFix"/>
<feBlend mode="normal" in="SourceGraphic" in2="BackgroundImageFix" result="shape"/>
<feGaussianBlur stdDeviation="11.05" result="effect1_foregroundBlur_237_2382"/>
</filter>
<radialGradient id="paint0_radial_237_2382" cx="0" cy="0" r="1" gradientUnits="userSpaceOnUse" gradientTransform="translate(782.653 282.482) rotate(84.82) scale(289.509 289.698)">
<stop stop-color="#FF6291"/>
<stop offset="1" stop-color="#8EA0FF"/>
</radialGradient>
<linearGradient id="paint1_linear_237_2382" x1="878.328" y1="540.457" x2="818.218" y2="540.349" gradientUnits="userSpaceOnUse">
<stop stop-color="white" stop-opacity="0.38"/>
<stop offset="1" stop-color="#8EA0FF"/>
</linearGradient>
<linearGradient id="paint2_linear_237_2382" x1="853.925" y1="540.457" x2="795.368" y2="540.354" gradientUnits="userSpaceOnUse">
<stop stop-color="white" stop-opacity="0.38"/>
<stop offset="1" stop-color="#8EA0FF"/>
</linearGradient>
<linearGradient id="paint3_linear_237_2382" x1="829.53" y1="540.457" x2="772.282" y2="540.359" gradientUnits="userSpaceOnUse">
<stop stop-color="white" stop-opacity="0.38"/>
<stop offset="1" stop-color="#8EA0FF"/>
</linearGradient>
<linearGradient id="paint4_linear_237_2382" x1="804.732" y1="540.574" x2="749.094" y2="540.481" gradientUnits="userSpaceOnUse">
<stop stop-color="white" stop-opacity="0.38"/>
<stop offset="1" stop-color="#8EA0FF"/>
</linearGradient>
<linearGradient id="paint5_linear_237_2382" x1="780.524" y1="540.574" x2="726.406" y2="540.486" gradientUnits="userSpaceOnUse">
<stop stop-color="white" stop-opacity="0.38"/>
<stop offset="1" stop-color="#8EA0FF"/>
</linearGradient>
<linearGradient id="paint6_linear_237_2382" x1="756.316" y1="540.574" x2="703.469" y2="540.49" gradientUnits="userSpaceOnUse">
<stop stop-color="white" stop-opacity="0.38"/>
<stop offset="1" stop-color="#8EA0FF"/>
</linearGradient>
<linearGradient id="paint7_linear_237_2382" x1="731.639" y1="540.574" x2="680.285" y2="540.495" gradientUnits="userSpaceOnUse">
<stop stop-color="white" stop-opacity="0.38"/>
<stop offset="1" stop-color="#8EA0FF"/>
</linearGradient>
<linearGradient id="paint8_linear_237_2382" x1="706.943" y1="540.574" x2="656.811" y2="540.499" gradientUnits="userSpaceOnUse">
<stop stop-color="white" stop-opacity="0.38"/>
<stop offset="1" stop-color="#8EA0FF"/>
</linearGradient>
<linearGradient id="paint9_linear_237_2382" x1="682.467" y1="540.457" x2="633.805" y2="540.386" gradientUnits="userSpaceOnUse">
<stop stop-color="white" stop-opacity="0.38"/>
<stop offset="1" stop-color="#8EA0FF"/>
</linearGradient>
<linearGradient id="paint10_linear_237_2382" x1="657.981" y1="540.457" x2="610.776" y2="540.39" gradientUnits="userSpaceOnUse">
<stop stop-color="white" stop-opacity="0.38"/>
<stop offset="1" stop-color="#8EA0FF"/>
</linearGradient>
<linearGradient id="paint11_linear_237_2382" x1="633.496" y1="540.574" x2="587.5" y2="540.511" gradientUnits="userSpaceOnUse">
<stop stop-color="white" stop-opacity="0.38"/>
<stop offset="1" stop-color="#8EA0FF"/>
</linearGradient>
<linearGradient id="paint12_linear_237_2382" x1="608.765" y1="540.34" x2="564.202" y2="540.28" gradientUnits="userSpaceOnUse">
<stop stop-color="white" stop-opacity="0.38"/>
<stop offset="1" stop-color="#8EA0FF"/>
</linearGradient>
<linearGradient id="paint13_linear_237_2382" x1="584.703" y1="540.574" x2="541.325" y2="540.518" gradientUnits="userSpaceOnUse">
<stop stop-color="white" stop-opacity="0.38"/>
<stop offset="1" stop-color="#8EA0FF"/>
</linearGradient>
<linearGradient id="paint14_linear_237_2382" x1="560.159" y1="540.457" x2="518.175" y2="540.404" gradientUnits="userSpaceOnUse">
<stop stop-color="white" stop-opacity="0.38"/>
<stop offset="1" stop-color="#8EA0FF"/>
</linearGradient>
<linearGradient id="paint15_linear_237_2382" x1="535.345" y1="540.574" x2="494.698" y2="540.524" gradientUnits="userSpaceOnUse">
<stop stop-color="white" stop-opacity="0.38"/>
<stop offset="1" stop-color="#8EA0FF"/>
</linearGradient>
<linearGradient id="paint16_linear_237_2382" x1="510.618" y1="540.574" x2="471.158" y2="540.527" gradientUnits="userSpaceOnUse">
<stop stop-color="white" stop-opacity="0.38"/>
<stop offset="1" stop-color="#8EA0FF"/>
</linearGradient>
<linearGradient id="paint17_linear_237_2382" x1="486.134" y1="540.457" x2="447.885" y2="540.413" gradientUnits="userSpaceOnUse">
<stop stop-color="white" stop-opacity="0.38"/>
<stop offset="1" stop-color="#8EA0FF"/>
</linearGradient>
<linearGradient id="paint18_linear_237_2382" x1="461.81" y1="540.574" x2="424.172" y2="540.532" gradientUnits="userSpaceOnUse">
<stop stop-color="white" stop-opacity="0.38"/>
<stop offset="1" stop-color="#8EA0FF"/>
</linearGradient>
<linearGradient id="paint19_linear_237_2382" x1="437.842" y1="540.457" x2="400.227" y2="540.415" gradientUnits="userSpaceOnUse">
<stop stop-color="white" stop-opacity="0.38"/>
<stop offset="1" stop-color="#8EA0FF"/>
</linearGradient>
<linearGradient id="paint20_linear_237_2382" x1="414.158" y1="540.457" x2="376.371" y2="540.414" gradientUnits="userSpaceOnUse">
<stop stop-color="white" stop-opacity="0.38"/>
<stop offset="1" stop-color="#8EA0FF"/>
</linearGradient>
<linearGradient id="paint21_linear_237_2382" x1="390.914" y1="540.574" x2="352.869" y2="540.531" gradientUnits="userSpaceOnUse">
<stop stop-color="white" stop-opacity="0.38"/>
<stop offset="1" stop-color="#8EA0FF"/>
</linearGradient>
<linearGradient id="paint22_linear_237_2382" x1="367.588" y1="540.34" x2="329.147" y2="540.296" gradientUnits="userSpaceOnUse">
<stop stop-color="white" stop-opacity="0.38"/>
<stop offset="1" stop-color="#8EA0FF"/>
</linearGradient>
<linearGradient id="paint23_linear_237_2382" x1="344.061" y1="540.457" x2="305.153" y2="540.412" gradientUnits="userSpaceOnUse">
<stop stop-color="white" stop-opacity="0.38"/>
<stop offset="1" stop-color="#8EA0FF"/>
</linearGradient>
<linearGradient id="paint24_linear_237_2382" x1="320.607" y1="540.457" x2="281.091" y2="540.41" gradientUnits="userSpaceOnUse">
<stop stop-color="white" stop-opacity="0.38"/>
<stop offset="1" stop-color="#8EA0FF"/>
</linearGradient>
<linearGradient id="paint25_linear_237_2382" x1="297.585" y1="540.574" x2="257.369" y2="540.526" gradientUnits="userSpaceOnUse">
<stop stop-color="white" stop-opacity="0.38"/>
<stop offset="1" stop-color="#8EA0FF"/>
</linearGradient>
<linearGradient id="paint26_linear_237_2382" x1="274.156" y1="540.574" x2="233.162" y2="540.524" gradientUnits="userSpaceOnUse">
<stop stop-color="white" stop-opacity="0.38"/>
<stop offset="1" stop-color="#8EA0FF"/>
</linearGradient>
<linearGradient id="paint27_linear_237_2382" x1="250.694" y1="540.574" x2="208.979" y2="540.522" gradientUnits="userSpaceOnUse">
<stop stop-color="white" stop-opacity="0.38"/>
<stop offset="1" stop-color="#8EA0FF"/>
</linearGradient>
<linearGradient id="paint28_linear_237_2382" x1="227.252" y1="540.574" x2="184.674" y2="540.52" gradientUnits="userSpaceOnUse">
<stop stop-color="white" stop-opacity="0.38"/>
<stop offset="1" stop-color="#8EA0FF"/>
</linearGradient>
<linearGradient id="paint29_linear_237_2382" x1="204.264" y1="540.457" x2="160.615" y2="540.4" gradientUnits="userSpaceOnUse">
<stop stop-color="white" stop-opacity="0.38"/>
<stop offset="1" stop-color="#8EA0FF"/>
</linearGradient>
<linearGradient id="paint30_linear_237_2382" x1="180.841" y1="540.457" x2="136.181" y2="540.397" gradientUnits="userSpaceOnUse">
<stop stop-color="white" stop-opacity="0.38"/>
<stop offset="1" stop-color="#8EA0FF"/>
</linearGradient>
<linearGradient id="paint31_linear_237_2382" x1="157.407" y1="540.457" x2="111.658" y2="540.394" gradientUnits="userSpaceOnUse">
<stop stop-color="white" stop-opacity="0.38"/>
<stop offset="1" stop-color="#8EA0FF"/>
</linearGradient>
<linearGradient id="paint32_linear_237_2382" x1="134.206" y1="540.574" x2="87.3534" y2="540.508" gradientUnits="userSpaceOnUse">
<stop stop-color="white" stop-opacity="0.38"/>
<stop offset="1" stop-color="#8EA0FF"/>
</linearGradient>
<linearGradient id="paint33_linear_237_2382" x1="110.859" y1="540.457" x2="62.5795" y2="540.387" gradientUnits="userSpaceOnUse">
<stop stop-color="white" stop-opacity="0.38"/>
<stop offset="1" stop-color="#8EA0FF"/>
</linearGradient>
<linearGradient id="paint34_linear_237_2382" x1="87.3536" y1="540.574" x2="37.7343" y2="540.5" gradientUnits="userSpaceOnUse">
<stop stop-color="white" stop-opacity="0.38"/>
<stop offset="1" stop-color="#8EA0FF"/>
</linearGradient>
<linearGradient id="paint35_linear_237_2382" x1="63.8045" y1="540.574" x2="12.8454" y2="540.496" gradientUnits="userSpaceOnUse">
<stop stop-color="white" stop-opacity="0.38"/>
<stop offset="1" stop-color="#8EA0FF"/>
</linearGradient>
<linearGradient id="paint36_linear_237_2382" x1="40.3709" y1="540.574" x2="-12.1975" y2="540.491" gradientUnits="userSpaceOnUse">
<stop stop-color="white" stop-opacity="0.38"/>
<stop offset="1" stop-color="#8EA0FF"/>
</linearGradient>
<linearGradient id="paint37_linear_237_2382" x1="16.561" y1="540.574" x2="-38.001" y2="540.485" gradientUnits="userSpaceOnUse">
<stop stop-color="white" stop-opacity="0.38"/>
<stop offset="1" stop-color="#8EA0FF"/>
</linearGradient>
<clipPath id="clip0_237_2382">
<rect width="932" height="373" fill="white"/>
</clipPath>
</defs>
</svg>
